<svg xmlns="http://www.w3.org/2000/svg" xmlns:xlink="http://www.w3.org/1999/xlink" width="80" zoomAndPan="magnify" viewBox="0 0 60 60" height="80" preserveAspectRatio="xMidYMid meet" version="1.0"><path fill="#13a6e2" d="M 29.78125 18.359375 C 23.816406 18.554688 18.796875 23.378906 18.382812 29.335938 C 17.949219 35.636719 22.453125 40.960938 28.410156 41.855469 L 28.410156 33.308594 L 26.503906 33.308594 C 25.644531 33.308594 24.949219 32.613281 24.949219 31.757812 C 24.949219 30.898438 25.644531 30.203125 26.503906 30.203125 L 28.410156 30.203125 L 28.410156 28.136719 C 28.410156 24.710938 30.078125 23.210938 32.921875 23.210938 C 33.347656 23.210938 33.707031 23.21875 34.011719 23.234375 C 34.765625 23.269531 35.347656 23.898438 35.347656 24.648438 C 35.347656 25.433594 34.710938 26.070312 33.929688 26.070312 L 33.40625 26.070312 C 32.199219 26.070312 31.777344 27.214844 31.777344 28.503906 L 31.777344 30.203125 L 33.988281 30.203125 C 34.683594 30.203125 35.21875 30.828125 35.113281 31.519531 L 34.984375 32.347656 C 34.898438 32.902344 34.421875 33.3125 33.859375 33.3125 L 31.777344 33.3125 L 31.777344 41.878906 C 37.546875 41.097656 42 36.160156 42 30.175781 C 42 23.515625 36.492188 18.144531 29.78125 18.359375 Z M 29.78125 18.359375 " fill-opacity="1" fill-rule="nonzero"/></svg>