<svg xmlns="http://www.w3.org/2000/svg" xmlns:xlink="http://www.w3.org/1999/xlink" width="80" zoomAndPan="magnify" viewBox="0 0 60 60" height="80" preserveAspectRatio="xMidYMid meet" version="1.0"><defs><clipPath id="4c1a1b6190"><path d="M 18 18 L 42 18 L 42 42 L 18 42 Z M 18 18 " clip-rule="nonzero"/></clipPath></defs><g clip-path="url(#4c1a1b6190)"><path fill="#13a6e2" d="M 30.003906 18 C 29.21875 18 28.4375 18.078125 27.664062 18.230469 C 26.890625 18.386719 26.140625 18.613281 25.414062 18.914062 C 24.683594 19.21875 23.992188 19.585938 23.339844 20.023438 C 22.683594 20.460938 22.078125 20.960938 21.519531 21.519531 C 20.964844 22.074219 20.464844 22.679688 20.027344 23.335938 C 19.589844 23.992188 19.222656 24.683594 18.921875 25.414062 C 18.617188 26.140625 18.390625 26.890625 18.238281 27.664062 C 18.085938 28.4375 18.007812 29.21875 18.007812 30.003906 C 18.007812 30.792969 18.085938 31.574219 18.238281 32.347656 C 18.394531 33.117188 18.621094 33.871094 18.921875 34.597656 C 19.226562 35.324219 19.59375 36.015625 20.03125 36.671875 C 20.472656 37.328125 20.96875 37.933594 21.527344 38.488281 C 22.082031 39.046875 22.691406 39.542969 23.34375 39.980469 C 24 40.417969 24.691406 40.789062 25.421875 41.089844 C 26.148438 41.390625 26.898438 41.621094 27.671875 41.773438 C 28.445312 41.925781 29.226562 42.003906 30.011719 42.003906 C 30.800781 42.003906 31.582031 41.925781 32.355469 41.773438 C 33.125 41.617188 33.878906 41.390625 34.605469 41.089844 C 35.332031 40.785156 36.023438 40.417969 36.679688 39.976562 C 37.335938 39.539062 37.941406 39.042969 38.496094 38.484375 C 39.054688 37.929688 39.550781 37.320312 39.988281 36.667969 C 40.425781 36.011719 40.796875 35.320312 41.097656 34.589844 C 41.398438 33.863281 41.628906 33.113281 41.78125 32.339844 C 41.933594 31.566406 42.011719 30.785156 42.011719 30 C 42.007812 29.210938 41.929688 28.429688 41.777344 27.660156 C 41.621094 26.886719 41.394531 26.136719 41.089844 25.410156 C 40.789062 24.683594 40.417969 23.992188 39.980469 23.335938 C 39.542969 22.683594 39.042969 22.074219 38.488281 21.519531 C 37.929688 20.960938 37.324219 20.464844 36.667969 20.027344 C 36.015625 19.589844 35.324219 19.21875 34.59375 18.917969 C 33.867188 18.617188 33.117188 18.386719 32.34375 18.234375 C 31.574219 18.078125 30.792969 18 30.003906 18 Z M 33.320312 40.125 C 32.800781 40.230469 32.605469 39.910156 32.605469 39.632812 C 32.605469 39.28125 32.621094 38.164062 32.621094 36.769531 C 32.621094 35.804688 32.292969 35.171875 31.917969 34.851562 C 34.230469 34.589844 36.664062 33.710938 36.664062 29.710938 C 36.683594 28.636719 36.324219 27.707031 35.59375 26.917969 C 35.699219 26.65625 36.066406 25.59375 35.492188 24.15625 C 35.492188 24.15625 34.621094 23.871094 32.628906 25.21875 C 30.898438 24.753906 29.164062 24.753906 27.429688 25.21875 C 25.441406 23.886719 24.566406 24.15625 24.566406 24.15625 C 24 25.585938 24.363281 26.652344 24.46875 26.917969 C 23.742188 27.707031 23.386719 28.640625 23.40625 29.710938 C 23.40625 33.691406 25.824219 34.589844 28.136719 34.851562 C 27.835938 35.109375 27.5625 35.5625 27.46875 36.242188 C 26.871094 36.511719 25.378906 36.953125 24.445312 35.386719 C 24.246094 35.070312 23.664062 34.304688 22.84375 34.3125 C 21.972656 34.328125 22.492188 34.8125 22.855469 35.003906 C 23.296875 35.257812 23.800781 36.175781 23.925781 36.472656 C 24.132812 37.0625 24.804688 38.179688 27.417969 37.699219 C 27.417969 38.570312 27.429688 39.390625 27.429688 39.632812 C 27.429688 39.90625 27.242188 40.214844 26.71875 40.121094 C 26.332031 39.992188 25.957031 39.839844 25.585938 39.667969 C 25.21875 39.492188 24.863281 39.300781 24.515625 39.082031 C 24.171875 38.867188 23.839844 38.632812 23.523438 38.378906 C 23.203125 38.125 22.902344 37.851562 22.617188 37.5625 C 22.332031 37.269531 22.0625 36.964844 21.8125 36.644531 C 21.5625 36.320312 21.335938 35.988281 21.125 35.636719 C 20.914062 35.289062 20.722656 34.929688 20.554688 34.558594 C 20.386719 34.1875 20.242188 33.808594 20.117188 33.421875 C 19.996094 33.03125 19.894531 32.640625 19.816406 32.238281 C 19.742188 31.839844 19.6875 31.4375 19.65625 31.03125 C 19.628906 30.625 19.621094 30.21875 19.640625 29.8125 C 19.65625 29.40625 19.699219 29 19.765625 28.597656 C 19.832031 28.195312 19.917969 27.800781 20.03125 27.410156 C 20.144531 27.015625 20.277344 26.632812 20.433594 26.257812 C 20.59375 25.882812 20.769531 25.515625 20.972656 25.164062 C 21.171875 24.808594 21.390625 24.464844 21.632812 24.136719 C 21.871094 23.808594 22.132812 23.496094 22.410156 23.199219 C 22.6875 22.898438 22.980469 22.617188 23.289062 22.355469 C 23.601562 22.089844 23.925781 21.847656 24.261719 21.621094 C 24.601562 21.394531 24.953125 21.191406 25.316406 21.003906 C 25.679688 20.820312 26.050781 20.660156 26.433594 20.519531 C 26.816406 20.378906 27.207031 20.261719 27.601562 20.164062 C 27.996094 20.070312 28.398438 20 28.800781 19.953125 C 29.207031 19.902344 29.613281 19.878906 30.019531 19.878906 C 30.425781 19.878906 30.832031 19.902344 31.238281 19.953125 C 31.640625 20 32.042969 20.070312 32.4375 20.164062 C 32.832031 20.261719 33.222656 20.378906 33.605469 20.519531 C 33.988281 20.660156 34.359375 20.820312 34.722656 21.003906 C 35.085938 21.191406 35.4375 21.394531 35.773438 21.621094 C 36.113281 21.847656 36.4375 22.089844 36.75 22.355469 C 37.058594 22.617188 37.351562 22.898438 37.628906 23.199219 C 37.90625 23.496094 38.167969 23.808594 38.40625 24.136719 C 38.648438 24.464844 38.867188 24.808594 39.066406 25.164062 C 39.265625 25.515625 39.445312 25.882812 39.601562 26.257812 C 39.761719 26.632812 39.894531 27.015625 40.007812 27.410156 C 40.121094 27.800781 40.207031 28.195312 40.273438 28.597656 C 40.339844 29 40.382812 29.40625 40.398438 29.8125 C 40.417969 30.21875 40.410156 30.625 40.382812 31.03125 C 40.351562 31.4375 40.296875 31.839844 40.222656 32.238281 C 40.144531 32.640625 40.042969 33.03125 39.921875 33.421875 C 39.796875 33.808594 39.652344 34.1875 39.484375 34.558594 C 39.316406 34.929688 39.125 35.289062 38.914062 35.636719 C 38.703125 35.988281 38.472656 36.320312 38.226562 36.644531 C 37.976562 36.964844 37.707031 37.269531 37.421875 37.5625 C 37.136719 37.851562 36.835938 38.125 36.515625 38.378906 C 36.199219 38.632812 35.867188 38.867188 35.523438 39.082031 C 35.175781 39.300781 34.820312 39.492188 34.453125 39.667969 C 34.082031 39.839844 33.707031 39.992188 33.320312 40.121094 Z M 33.320312 40.125 " fill-opacity="1" fill-rule="evenodd"/></g></svg>