<svg xmlns="http://www.w3.org/2000/svg" xmlns:xlink="http://www.w3.org/1999/xlink" width="80" zoomAndPan="magnify" viewBox="0 0 60 60" height="80" preserveAspectRatio="xMidYMid meet" version="1.0"><path fill="#13a6e2" d="M 25.058594 18 C 21.183594 18 18 21.179688 18 25.058594 L 18 34.941406 C 18 38.816406 21.179688 42 25.058594 42 L 34.941406 42 C 38.816406 42 42 38.820312 42 34.941406 L 42 25.058594 C 42 21.183594 38.820312 18 34.941406 18 Z M 25.058594 20.183594 L 34.941406 20.183594 C 37.640625 20.183594 39.816406 22.359375 39.816406 25.058594 L 39.816406 34.941406 C 39.816406 37.640625 37.640625 39.816406 34.941406 39.816406 L 25.058594 39.816406 C 22.359375 39.816406 20.183594 37.640625 20.183594 34.941406 L 20.183594 25.058594 C 20.183594 22.359375 22.359375 20.183594 25.058594 20.183594 Z M 36.441406 22.566406 C 35.894531 22.566406 35.453125 23.007812 35.453125 23.558594 C 35.453125 24.105469 35.894531 24.546875 36.441406 24.546875 C 36.992188 24.546875 37.433594 24.105469 37.433594 23.558594 C 37.433594 23.007812 36.992188 22.566406 36.441406 22.566406 Z M 30 23.453125 C 26.398438 23.453125 23.453125 26.398438 23.453125 30 C 23.453125 33.601562 26.398438 36.546875 30 36.546875 C 33.601562 36.546875 36.546875 33.601562 36.546875 30 C 36.546875 26.398438 33.601562 23.453125 30 23.453125 Z M 30 25.636719 C 32.425781 25.636719 34.363281 27.574219 34.363281 30 C 34.363281 32.425781 32.425781 34.363281 30 34.363281 C 27.574219 34.363281 25.636719 32.425781 25.636719 30 C 25.636719 27.574219 27.574219 25.636719 30 25.636719 Z M 30 25.636719 " fill-opacity="1" fill-rule="nonzero"/></svg>