<svg xmlns="http://www.w3.org/2000/svg" xmlns:xlink="http://www.w3.org/1999/xlink" width="80" zoomAndPan="magnify" viewBox="0 0 60 60" height="80" preserveAspectRatio="xMidYMid meet" version="1.0"><defs><clipPath id="d1f3c124a2"><path d="M 18.058594 18 L 42.058594 18 L 42.058594 42 L 18.058594 42 Z M 18.058594 18 " clip-rule="nonzero"/></clipPath></defs><g clip-path="url(#d1f3c124a2)"><path fill="#13a6e2" d="M 38.5625 21.492188 C 36.304688 19.242188 33.304688 18.003906 30.105469 18.003906 C 23.519531 18.003906 18.160156 23.335938 18.160156 29.890625 C 18.160156 31.984375 18.710938 34.035156 19.757812 35.835938 L 18.058594 41.996094 L 24.394531 40.339844 C 26.144531 41.289062 28.109375 41.789062 30.105469 41.789062 L 30.109375 41.789062 C 36.695312 41.789062 42.0625 36.457031 42.0625 29.902344 C 42.0625 26.726562 40.816406 23.742188 38.5625 21.492188 Z M 30.109375 39.785156 C 28.324219 39.785156 26.578125 39.304688 25.050781 38.40625 L 24.6875 38.191406 L 20.925781 39.167969 L 21.933594 35.523438 L 21.695312 35.148438 C 20.695312 33.578125 20.175781 31.761719 20.175781 29.894531 C 20.175781 24.445312 24.632812 20.007812 30.117188 20.007812 C 32.765625 20.007812 35.265625 21.039062 37.140625 22.90625 C 39.015625 24.773438 40.046875 27.253906 40.046875 29.894531 C 40.042969 35.347656 35.585938 39.78125 30.109375 39.78125 Z M 35.554688 32.382812 C 35.257812 32.230469 33.789062 31.515625 33.515625 31.414062 C 33.242188 31.316406 33.042969 31.265625 32.84375 31.566406 C 32.644531 31.859375 32.070312 32.53125 31.894531 32.730469 C 31.71875 32.929688 31.546875 32.957031 31.25 32.808594 C 30.953125 32.65625 29.988281 32.34375 28.847656 31.332031 C 27.960938 30.542969 27.359375 29.570312 27.183594 29.273438 C 27.011719 28.980469 27.164062 28.816406 27.316406 28.671875 C 27.457031 28.539062 27.613281 28.324219 27.765625 28.148438 C 27.917969 27.976562 27.964844 27.855469 28.0625 27.652344 C 28.164062 27.457031 28.113281 27.28125 28.039062 27.132812 C 27.964844 26.984375 27.363281 25.519531 27.121094 24.925781 C 26.882812 24.34375 26.628906 24.425781 26.445312 24.414062 C 26.273438 24.40625 26.074219 24.40625 25.875 24.40625 C 25.679688 24.40625 25.355469 24.480469 25.082031 24.777344 C 24.808594 25.070312 24.035156 25.792969 24.035156 27.253906 C 24.035156 28.71875 25.101562 30.128906 25.253906 30.328125 C 25.40625 30.527344 27.359375 33.527344 30.355469 34.8125 C 31.066406 35.117188 31.621094 35.300781 32.054688 35.441406 C 32.773438 35.667969 33.421875 35.632812 33.9375 35.558594 C 34.511719 35.476562 35.703125 34.84375 35.953125 34.148438 C 36.203125 33.453125 36.203125 32.859375 36.128906 32.738281 C 36.058594 32.605469 35.859375 32.53125 35.558594 32.378906 Z M 35.554688 32.382812 " fill-opacity="1" fill-rule="evenodd"/></g></svg>